# xmcd CD database file
#
# Track frame offsets:
#	150
#	10708
#	21853
#	34439
#	44774
#	58324
#	70001
#	81194
#	92782
#	104115
#	115349
#	126028
#	135169
#	147432
#	158503
#	168143
#	179749
#	189799
#	200612
#	213026
#	230012
#	240969
#	253158
#
# Disc length: 3520 seconds
#
# Revision: 0
# Processed by: cddbd v1.5.2PL0 Copyright (c) Steve Scherf et al.
# Submitted via: jetAudio 7
#
DISCID=430dbe17
DTITLE=Jerry Reed - The Unbelievable Guitar And Voice Of Jerry Reed and A
DTITLE=labama Wild Man
DYEAR=1900
DGENRE=Country
TTITLE0=It Don't Work That Way
TTITLE1=Guitar Man
TTITLE2=You're Young
TTITLE3=Woman Shy
TTITLE4=I Feel For You
TTITLE5=Take A Walk
TTITLE6=Love Man
TTITLE7=If I Promise
TTITLE8=U.S. Male
TTITLE9=Long Gone
TTITLE10=If It Comes To That
TTITLE11=The Claw
TTITLE12=Alabama Wild Man
TTITLE13=Love Prints
TTITLE14=Broken Heart Attack
TTITLE15=Free Born Man
TTITLE16=Last Train To Clarksville
TTITLE17=Twelve Bar Midnight
TTITLE18=Losing Your Love
TTITLE19=Today Is Mine
TTITLE20=Maybe In Time
TTITLE21=House Of The Rising Sun
TTITLE22=You'd Better Take Time
EXTD=©2016 BGO Records BGOCD1267 Disc 1
EXTT0=
EXTT1=
EXTT2=
EXTT3=
EXTT4=
EXTT5=
EXTT6=
EXTT7=
EXTT8=
EXTT9=
EXTT10=
EXTT11=
EXTT12=
EXTT13=
EXTT14=
EXTT15=
EXTT16=
EXTT17=
EXTT18=
EXTT19=
EXTT20=
EXTT21=
EXTT22=
PLAYORDER=
